<svg height="512" viewBox="0 0 64 64" width="512" xmlns="http://www.w3.org/2000/svg"><g id="checklist"><path d="m55 2h-41a5 5 0 0 0 -5 5v47h-6a1 1 0 0 0 -1 1 7.008 7.008 0 0 0 7 7h45a1 1 0 0 0 1-1v-51h6a1 1 0 0 0 1-1 7.008 7.008 0 0 0 -7-7zm-46 58a5.009 5.009 0 0 1 -4.9-4h40.01a6.945 6.945 0 0 0 3 4zm44 0c-2.99 0-7-2.47-7-5a1 1 0 0 0 -1-1h-34v-47a3.009 3.009 0 0 1 3-3h39zm2-52v-4a5.009 5.009 0 0 1 4.9 4z"/><path d="m20 44h-6a1 1 0 0 0 -1 1v6a1 1 0 0 0 1 1h6a1 1 0 0 0 1-1v-6a1 1 0 0 0 -1-1zm-1 6h-4v-4h4z"/><path d="m24 45h27v2h-27z"/><path d="m24 49h27v2h-27z"/><path d="m20 34h-6a1 1 0 0 0 -1 1v6a1 1 0 0 0 1 1h6a1 1 0 0 0 1-1v-6a1 1 0 0 0 -1-1zm-1 6h-4v-4h4z"/><path d="m24 35h27v2h-27z"/><path d="m24 39h27v2h-27z"/><path d="m20 24h-6a1 1 0 0 0 -1 1v6a1 1 0 0 0 1 1h6a1 1 0 0 0 1-1v-6a1 1 0 0 0 -1-1zm-1 6h-4v-4h4z"/><path d="m24 25h27v2h-27z"/><path d="m24 29h27v2h-27z"/><path d="m20 14h-6a1 1 0 0 0 -1 1v6a1 1 0 0 0 1 1h6a1 1 0 0 0 1-1v-6a1 1 0 0 0 -1-1zm-1 6h-4v-4h4z"/><path d="m29 12h6a3 3 0 0 0 0-6h-6a3 3 0 0 0 0 6zm0-4h6a1 1 0 0 1 0 2h-6a1 1 0 0 1 0-2z"/><path d="m24 15h27v2h-27z"/><path d="m24 19h27v2h-27z"/></g></svg>