<?xml version="1.0" encoding="iso-8859-1"?>
<!-- Generator: Adobe Illustrator 17.1.0, SVG Export Plug-In . SVG Version: 6.00 Build 0)  -->
<!DOCTYPE svg PUBLIC "-//W3C//DTD SVG 1.1//EN" "http://www.w3.org/Graphics/SVG/1.1/DTD/svg11.dtd">
<svg version="1.1" id="Capa_1" xmlns="http://www.w3.org/2000/svg" xmlns:xlink="http://www.w3.org/1999/xlink" x="0px" y="0px"
	 viewBox="0 0 442.003 442.003" style="enable-background:new 0 0 442.003 442.003;" xml:space="preserve">
<g>
	<path d="M242.812,29.91c-80.11,0-145.284,65.174-145.284,145.284s65.174,145.284,145.284,145.284s145.284-65.174,145.284-145.284
		S322.922,29.91,242.812,29.91z M242.812,300.478c-69.082,0-125.284-56.202-125.284-125.284
		c0-69.082,56.202-125.284,125.284-125.284s125.284,56.202,125.284,125.284C368.096,244.276,311.894,300.478,242.812,300.478z"/>
	<path d="M335.227,422.002h-57.311l-7.822-59.969c15.126-2.208,30.221-6.301,44.969-12.41c5.103-2.113,7.525-7.963,5.412-13.065
		c-2.114-5.103-7.963-7.526-13.066-5.412c-85.99,35.619-184.932-5.362-220.55-91.354c-17.255-41.657-17.255-87.539-0.001-129.196
		c17.255-41.656,49.699-74.1,91.355-91.355c5.103-2.114,7.525-7.963,5.412-13.066c-2.114-5.103-7.963-7.525-13.066-5.412
		C123.968,20.063,87.681,56.351,68.381,102.943c-19.299,46.592-19.299,97.911,0,144.503
		c26.331,63.567,83.584,105.143,147.156,114.53l-7.83,60.028h-57.31c-5.522,0-10,4.477-10,10s4.478,10,10,10h66.087
		c0.005,0,0.01,0.001,0.015,0.001c0.007,0,0.014-0.001,0.021-0.001h52.581c0.007,0,0.014,0.001,0.021,0.001
		c0.005,0,0.01-0.001,0.015-0.001h66.088c5.522,0,10-4.477,10-10S340.749,422.002,335.227,422.002z M235.463,363.84
		c2.527,0.102,5.058,0.158,7.595,0.158c2.364,0,4.733-0.058,7.104-0.148l7.585,58.153h-29.87L235.463,363.84z"/>
</g>
<g>
</g>
<g>
</g>
<g>
</g>
<g>
</g>
<g>
</g>
<g>
</g>
<g>
</g>
<g>
</g>
<g>
</g>
<g>
</g>
<g>
</g>
<g>
</g>
<g>
</g>
<g>
</g>
<g>
</g>
</svg>
