<svg height="512pt" viewBox="-46 0 512 512" width="512pt" xmlns="http://www.w3.org/2000/svg"><path d="m230 260c5.519531 0 10-4.480469 10-10s-4.480469-10-10-10-10 4.480469-10 10 4.480469 10 10 10zm0 0"/><path d="m90 512h160c46.246094 0 84.449219-35.0625 89.441406-80h30.558594c27.570312 0 50-22.429688 50-50v-92c0-27.570312-22.429688-50-50-50h-30c0-8.535156 0-221.570312 0-230 0-5.523438-4.476562-10-10-10h-80c-5.523438 0-10 4.476562-10 10v190h-40v-70.019531c12.460938-9.371094 20-24.183594 20-39.980469 0-24.746094-9.304688-37.660156-29.285156-67.144531-3.65625-5.394531-7.800782-11.507813-12.394532-18.402344-1.851562-2.78125-4.976562-4.453125-8.320312-4.453125s-6.464844 1.671875-8.320312 4.453125c-4.566407 6.851563-8.691407 12.933594-12.332032 18.304687-21.355468 31.5-29.347656 43.289063-29.347656 67.242188 0 15.800781 7.539062 30.613281 20 39.980469v70.019531h-40v-110c0-1.566406-.417969-3.199219-1.054688-4.472656l-40-80c-1.695312-3.386719-5.15625-5.527344-8.945312-5.527344s-7.25 2.140625-8.945312 5.527344l-40 80c-.644532 1.289062-1.054688 2.933594-1.054688 4.472656v332c0 49.625 40.375 90 90 90zm280-252c16.542969 0 30 13.457031 30 30v92c0 16.542969-13.457031 30-30 30h-30v-152zm-110-80h20c5.523438 0 10-4.476562 10-10s-4.476562-10-10-10h-20v-20h20c5.523438 0 10-4.476562 10-10s-4.476562-10-10-10h-20v-20h20c5.523438 0 10-4.476562 10-10s-4.476562-10-10-10h-20v-20h20c5.523438 0 10-4.476562 10-10s-4.476562-10-10-10h-20v-20h60v180h-60zm-94.097656-146.019531c1.304687-1.925781 2.667968-3.941407 4.09375-6.050781 1.453125 2.148437 2.839844 4.191406 4.164062 6.148437 20.558594 30.332031 25.839844 38.277344 25.839844 55.921875 0 10.730469-5.792969 20.714844-15.117188 26.050781v.003907c-4.511718 2.582031-9.65625 3.945312-14.882812 3.945312-16.816406 0-30-13.722656-30-30 0-17.8125 5.488281-25.90625 25.902344-56.019531zm-5.902344 105c3.28125.667969 6.628906 1.019531 10 1.019531s6.71875-.351562 10-1.019531v61.019531h-20zm-100 61.019531v-100h20v100zm-40 0v-100h20v100zm30-167.640625 23.820312 47.640625h-47.640624zm-30 187.640625h300v202c0 38.597656-31.402344 70-70 70h-160c-38.597656 0-70-31.402344-70-70zm0 0"/><path d="m110 260h80c5.523438 0 10-4.476562 10-10s-4.476562-10-10-10h-80c-5.523438 0-10 4.476562-10 10s4.476562 10 10 10zm0 0"/></svg>