<svg height="468pt" viewBox="-108 1 468 468.99991" width="468pt" xmlns="http://www.w3.org/2000/svg"><path d="m204.511719 109.667969h35.40625c5.523437 0 10-4.476563 10-10v-49.667969c-.03125-27.601562-22.398438-49.96875-50-50h-144c-27.601563.03125-49.96875 22.398438-50 50v49.667969c0 5.523437 4.476562 10 10 10h32.894531l-29.191406 42.867187c-22.992188 33.660156-25.429688 77.292969-6.335938 113.304688l104.535156 197.832031c1.730469 3.277344 5.132813 5.328125 8.839844 5.328125 3.707032 0 7.109375-2.050781 8.84375-5.328125l104.535156-197.832031c19.089844-36.015625 16.652344-79.644532-6.335937-113.304688zm-178.59375-59.667969c.019531-16.5625 13.4375-29.980469 30-30h144c16.5625.019531 29.980469 13.4375 30 30v39.667969h-204zm100.742187 229.398438c-15.097656 0-27.332031-12.234376-27.332031-27.332032 0-15.09375 12.234375-27.332031 27.332031-27.332031 15.09375 0 27.332032 12.238281 27.332032 27.332031-.015626 15.089844-12.242188 27.316406-27.332032 27.332032zm95.691406-22.898438-85.390624 161.605469.898437-120.054688c23.511719-5.71875 38.925781-28.246093 35.738281-52.234375-3.1875-23.984375-23.949218-41.703125-48.136718-41.085937-24.191407.621093-44.015626 19.382812-45.96875 43.5-1.953126 24.121093 14.59375 45.828125 38.367187 50.332031l-.898437 120.652344-85.992188-162.714844c-15.621094-29.464844-13.625-65.164062 5.183594-92.703125l36.855468-54.125h107.304688l36.855469 54.121094c18.8125 27.542969 20.808593 63.238281 5.183593 92.707031zm0 0"/></svg>